<mxfile host="app.diagrams.net" agent="Mozilla/5.0 (Windows NT 10.0; Win64; x64) AppleWebKit/537.36 (KHTML, like Gecko) Chrome/135.0.0.0 Safari/537.36 Edg/135.0.0.0" version="26.2.8">
  <diagram name="Страница — 1" id="5xd564FTDhMuFOyQvLEF">
    <mxGraphModel dx="1420" dy="794" grid="1" gridSize="10" guides="1" tooltips="1" connect="1" arrows="1" fold="1" page="1" pageScale="1" pageWidth="827" pageHeight="1169" math="0" shadow="0">
      <root>
        <mxCell id="0" />
        <mxCell id="1" parent="0" />
        <mxCell id="l7dvxuroxf9YKhssnA6w-12" style="edgeStyle=orthogonalEdgeStyle;rounded=0;orthogonalLoop=1;jettySize=auto;html=1;exitX=0.5;exitY=1;exitDx=0;exitDy=0;entryX=0.5;entryY=0;entryDx=0;entryDy=0;" edge="1" parent="1" source="l7dvxuroxf9YKhssnA6w-2">
          <mxGeometry relative="1" as="geometry">
            <mxPoint x="100" y="200" as="targetPoint" />
          </mxGeometry>
        </mxCell>
        <mxCell id="l7dvxuroxf9YKhssnA6w-2" value="начало" style="rounded=1;whiteSpace=wrap;html=1;" vertex="1" parent="1">
          <mxGeometry x="40" y="130" width="120" height="40" as="geometry" />
        </mxCell>
        <mxCell id="l7dvxuroxf9YKhssnA6w-3" value="&lt;span style=&quot;color: rgb(0, 0, 0); font-family: Helvetica; font-size: 12px; font-style: normal; font-variant-ligatures: normal; font-variant-caps: normal; letter-spacing: normal; orphans: 2; text-indent: 0px; text-transform: none; widows: 2; word-spacing: 0px; -webkit-text-stroke-width: 0px; white-space: normal; background-color: rgb(236, 236, 236); text-decoration-thickness: initial; text-decoration-style: initial; text-decoration-color: initial; float: none; display: inline !important;&quot;&gt;Блок схема для управления автомобилем&lt;/span&gt;" style="text;whiteSpace=wrap;html=1;align=center;fontStyle=1" vertex="1" parent="1">
          <mxGeometry x="40" y="74" width="120" height="50" as="geometry" />
        </mxCell>
        <mxCell id="l7dvxuroxf9YKhssnA6w-13" style="edgeStyle=orthogonalEdgeStyle;rounded=0;orthogonalLoop=1;jettySize=auto;html=1;exitX=0.5;exitY=1;exitDx=0;exitDy=0;entryX=0.5;entryY=0;entryDx=0;entryDy=0;" edge="1" parent="1" target="l7dvxuroxf9YKhssnA6w-5">
          <mxGeometry relative="1" as="geometry">
            <mxPoint x="100" y="260" as="sourcePoint" />
          </mxGeometry>
        </mxCell>
        <mxCell id="l7dvxuroxf9YKhssnA6w-14" style="edgeStyle=orthogonalEdgeStyle;rounded=0;orthogonalLoop=1;jettySize=auto;html=1;exitX=0.5;exitY=1;exitDx=0;exitDy=0;entryX=0.5;entryY=0;entryDx=0;entryDy=0;" edge="1" parent="1" source="l7dvxuroxf9YKhssnA6w-5" target="l7dvxuroxf9YKhssnA6w-6">
          <mxGeometry relative="1" as="geometry" />
        </mxCell>
        <mxCell id="l7dvxuroxf9YKhssnA6w-5" value="Запуск автомобиля" style="rounded=0;whiteSpace=wrap;html=1;" vertex="1" parent="1">
          <mxGeometry x="40" y="280" width="120" height="60" as="geometry" />
        </mxCell>
        <mxCell id="l7dvxuroxf9YKhssnA6w-15" style="edgeStyle=orthogonalEdgeStyle;rounded=0;orthogonalLoop=1;jettySize=auto;html=1;exitX=0.5;exitY=1;exitDx=0;exitDy=0;entryX=0.5;entryY=0;entryDx=0;entryDy=0;" edge="1" parent="1" source="l7dvxuroxf9YKhssnA6w-6" target="l7dvxuroxf9YKhssnA6w-7">
          <mxGeometry relative="1" as="geometry" />
        </mxCell>
        <mxCell id="l7dvxuroxf9YKhssnA6w-6" value="Пристегнуть ремень" style="rounded=0;whiteSpace=wrap;html=1;" vertex="1" parent="1">
          <mxGeometry x="40" y="360" width="120" height="60" as="geometry" />
        </mxCell>
        <mxCell id="l7dvxuroxf9YKhssnA6w-16" style="edgeStyle=orthogonalEdgeStyle;rounded=0;orthogonalLoop=1;jettySize=auto;html=1;exitX=0.5;exitY=1;exitDx=0;exitDy=0;entryX=0.5;entryY=0;entryDx=0;entryDy=0;" edge="1" parent="1" source="l7dvxuroxf9YKhssnA6w-7" target="l7dvxuroxf9YKhssnA6w-8">
          <mxGeometry relative="1" as="geometry" />
        </mxCell>
        <mxCell id="l7dvxuroxf9YKhssnA6w-7" value="Начать движение из точки А" style="rounded=0;whiteSpace=wrap;html=1;" vertex="1" parent="1">
          <mxGeometry x="40" y="440" width="120" height="60" as="geometry" />
        </mxCell>
        <mxCell id="l7dvxuroxf9YKhssnA6w-17" style="edgeStyle=orthogonalEdgeStyle;rounded=0;orthogonalLoop=1;jettySize=auto;html=1;exitX=0.5;exitY=1;exitDx=0;exitDy=0;entryX=0.5;entryY=0;entryDx=0;entryDy=0;" edge="1" parent="1" source="l7dvxuroxf9YKhssnA6w-8" target="l7dvxuroxf9YKhssnA6w-9">
          <mxGeometry relative="1" as="geometry" />
        </mxCell>
        <mxCell id="l7dvxuroxf9YKhssnA6w-8" value="Закончить движение в точке Б" style="rounded=0;whiteSpace=wrap;html=1;" vertex="1" parent="1">
          <mxGeometry x="40" y="524.5" width="120" height="60" as="geometry" />
        </mxCell>
        <mxCell id="l7dvxuroxf9YKhssnA6w-23" style="edgeStyle=orthogonalEdgeStyle;rounded=0;orthogonalLoop=1;jettySize=auto;html=1;exitX=0.5;exitY=1;exitDx=0;exitDy=0;entryX=0.5;entryY=0;entryDx=0;entryDy=0;" edge="1" parent="1" source="l7dvxuroxf9YKhssnA6w-9" target="l7dvxuroxf9YKhssnA6w-22">
          <mxGeometry relative="1" as="geometry" />
        </mxCell>
        <mxCell id="l7dvxuroxf9YKhssnA6w-9" value="Закрыть автомобиль" style="rounded=0;whiteSpace=wrap;html=1;" vertex="1" parent="1">
          <mxGeometry x="40" y="600" width="120" height="60" as="geometry" />
        </mxCell>
        <mxCell id="l7dvxuroxf9YKhssnA6w-18" value="Actor" style="shape=umlActor;verticalLabelPosition=bottom;verticalAlign=top;html=1;outlineConnect=0;" vertex="1" parent="1">
          <mxGeometry x="190" y="200" width="20" height="50" as="geometry" />
        </mxCell>
        <mxCell id="l7dvxuroxf9YKhssnA6w-21" value="Открыли дверь" style="shape=parallelogram;perimeter=parallelogramPerimeter;whiteSpace=wrap;html=1;fixedSize=1;" vertex="1" parent="1">
          <mxGeometry x="40" y="200" width="120" height="60" as="geometry" />
        </mxCell>
        <mxCell id="l7dvxuroxf9YKhssnA6w-22" value="Конец" style="rounded=0;whiteSpace=wrap;html=1;" vertex="1" parent="1">
          <mxGeometry x="40" y="680" width="120" height="60" as="geometry" />
        </mxCell>
        <mxCell id="l7dvxuroxf9YKhssnA6w-24" value="&lt;span style=&quot;color: rgb(0, 0, 0); font-family: Helvetica; font-size: 12px; font-style: normal; font-variant-ligatures: normal; font-variant-caps: normal; letter-spacing: normal; orphans: 2; text-indent: 0px; text-transform: none; widows: 2; word-spacing: 0px; -webkit-text-stroke-width: 0px; white-space: normal; background-color: rgb(236, 236, 236); text-decoration-thickness: initial; text-decoration-style: initial; text-decoration-color: initial; float: none; display: inline !important;&quot;&gt;Блок схема для покупки велосипедных шин&lt;/span&gt;" style="text;whiteSpace=wrap;html=1;align=center;fontStyle=1" vertex="1" parent="1">
          <mxGeometry x="330" y="80" width="120" height="50" as="geometry" />
        </mxCell>
        <mxCell id="l7dvxuroxf9YKhssnA6w-34" style="edgeStyle=orthogonalEdgeStyle;rounded=0;orthogonalLoop=1;jettySize=auto;html=1;exitX=0.5;exitY=1;exitDx=0;exitDy=0;entryX=0.5;entryY=0;entryDx=0;entryDy=0;" edge="1" parent="1" source="l7dvxuroxf9YKhssnA6w-25" target="l7dvxuroxf9YKhssnA6w-31">
          <mxGeometry relative="1" as="geometry" />
        </mxCell>
        <mxCell id="l7dvxuroxf9YKhssnA6w-25" value="начало" style="rounded=1;whiteSpace=wrap;html=1;" vertex="1" parent="1">
          <mxGeometry x="320" y="140" width="120" height="40" as="geometry" />
        </mxCell>
        <mxCell id="l7dvxuroxf9YKhssnA6w-36" style="edgeStyle=orthogonalEdgeStyle;rounded=0;orthogonalLoop=1;jettySize=auto;html=1;exitX=0.5;exitY=1;exitDx=0;exitDy=0;entryX=0.5;entryY=0;entryDx=0;entryDy=0;" edge="1" parent="1" source="l7dvxuroxf9YKhssnA6w-26">
          <mxGeometry relative="1" as="geometry">
            <mxPoint x="380" y="370" as="targetPoint" />
          </mxGeometry>
        </mxCell>
        <mxCell id="l7dvxuroxf9YKhssnA6w-26" value="Нашел магазин в картах" style="rounded=0;whiteSpace=wrap;html=1;" vertex="1" parent="1">
          <mxGeometry x="320" y="290" width="120" height="60" as="geometry" />
        </mxCell>
        <mxCell id="l7dvxuroxf9YKhssnA6w-37" style="edgeStyle=orthogonalEdgeStyle;rounded=0;orthogonalLoop=1;jettySize=auto;html=1;exitX=0.5;exitY=1;exitDx=0;exitDy=0;entryX=0.5;entryY=0;entryDx=0;entryDy=0;" edge="1" parent="1" target="l7dvxuroxf9YKhssnA6w-28">
          <mxGeometry relative="1" as="geometry">
            <mxPoint x="380" y="440" as="sourcePoint" />
          </mxGeometry>
        </mxCell>
        <mxCell id="l7dvxuroxf9YKhssnA6w-38" style="edgeStyle=orthogonalEdgeStyle;rounded=0;orthogonalLoop=1;jettySize=auto;html=1;exitX=1;exitY=0.5;exitDx=0;exitDy=0;" edge="1" parent="1" source="l7dvxuroxf9YKhssnA6w-28" target="l7dvxuroxf9YKhssnA6w-33">
          <mxGeometry relative="1" as="geometry" />
        </mxCell>
        <mxCell id="l7dvxuroxf9YKhssnA6w-40" style="edgeStyle=orthogonalEdgeStyle;rounded=0;orthogonalLoop=1;jettySize=auto;html=1;exitX=0.5;exitY=1;exitDx=0;exitDy=0;entryX=0.5;entryY=0;entryDx=0;entryDy=0;" edge="1" parent="1" source="l7dvxuroxf9YKhssnA6w-28" target="l7dvxuroxf9YKhssnA6w-29">
          <mxGeometry relative="1" as="geometry" />
        </mxCell>
        <mxCell id="l7dvxuroxf9YKhssnA6w-28" value="Магазин открыт" style="rounded=0;whiteSpace=wrap;html=1;fillColor=#d5e8d4;strokeColor=#82b366;" vertex="1" parent="1">
          <mxGeometry x="320" y="460" width="120" height="60" as="geometry" />
        </mxCell>
        <mxCell id="l7dvxuroxf9YKhssnA6w-41" style="edgeStyle=orthogonalEdgeStyle;rounded=0;orthogonalLoop=1;jettySize=auto;html=1;exitX=0.5;exitY=1;exitDx=0;exitDy=0;entryX=0.5;entryY=0;entryDx=0;entryDy=0;" edge="1" parent="1" source="l7dvxuroxf9YKhssnA6w-29" target="l7dvxuroxf9YKhssnA6w-30">
          <mxGeometry relative="1" as="geometry" />
        </mxCell>
        <mxCell id="l7dvxuroxf9YKhssnA6w-29" value="Выбрал шины" style="rounded=0;whiteSpace=wrap;html=1;" vertex="1" parent="1">
          <mxGeometry x="320" y="544.5" width="120" height="60" as="geometry" />
        </mxCell>
        <mxCell id="l7dvxuroxf9YKhssnA6w-42" style="edgeStyle=orthogonalEdgeStyle;rounded=0;orthogonalLoop=1;jettySize=auto;html=1;exitX=0.5;exitY=1;exitDx=0;exitDy=0;entryX=0.5;entryY=0;entryDx=0;entryDy=0;" edge="1" parent="1" source="l7dvxuroxf9YKhssnA6w-30" target="l7dvxuroxf9YKhssnA6w-32">
          <mxGeometry relative="1" as="geometry" />
        </mxCell>
        <mxCell id="l7dvxuroxf9YKhssnA6w-30" value="Заплатил" style="rounded=0;whiteSpace=wrap;html=1;" vertex="1" parent="1">
          <mxGeometry x="320" y="620" width="120" height="60" as="geometry" />
        </mxCell>
        <mxCell id="l7dvxuroxf9YKhssnA6w-35" style="edgeStyle=orthogonalEdgeStyle;rounded=0;orthogonalLoop=1;jettySize=auto;html=1;exitX=0.5;exitY=1;exitDx=0;exitDy=0;entryX=0.5;entryY=0;entryDx=0;entryDy=0;" edge="1" parent="1" source="l7dvxuroxf9YKhssnA6w-31" target="l7dvxuroxf9YKhssnA6w-26">
          <mxGeometry relative="1" as="geometry" />
        </mxCell>
        <mxCell id="l7dvxuroxf9YKhssnA6w-31" value="Обнаружил дырку" style="shape=parallelogram;perimeter=parallelogramPerimeter;whiteSpace=wrap;html=1;fixedSize=1;" vertex="1" parent="1">
          <mxGeometry x="320" y="210" width="120" height="60" as="geometry" />
        </mxCell>
        <mxCell id="l7dvxuroxf9YKhssnA6w-32" value="Конец" style="rounded=0;whiteSpace=wrap;html=1;" vertex="1" parent="1">
          <mxGeometry x="320" y="700" width="120" height="60" as="geometry" />
        </mxCell>
        <mxCell id="l7dvxuroxf9YKhssnA6w-44" style="edgeStyle=orthogonalEdgeStyle;rounded=0;orthogonalLoop=1;jettySize=auto;html=1;exitX=0.5;exitY=1;exitDx=0;exitDy=0;entryX=0.5;entryY=0;entryDx=0;entryDy=0;" edge="1" parent="1" source="l7dvxuroxf9YKhssnA6w-33" target="l7dvxuroxf9YKhssnA6w-43">
          <mxGeometry relative="1" as="geometry" />
        </mxCell>
        <mxCell id="l7dvxuroxf9YKhssnA6w-33" value="Магазин закрыт" style="rounded=0;whiteSpace=wrap;html=1;fillColor=#f8cecc;strokeColor=#b85450;" vertex="1" parent="1">
          <mxGeometry x="460" y="460" width="120" height="60" as="geometry" />
        </mxCell>
        <mxCell id="l7dvxuroxf9YKhssnA6w-46" style="edgeStyle=orthogonalEdgeStyle;rounded=0;orthogonalLoop=1;jettySize=auto;html=1;exitX=0.5;exitY=1;exitDx=0;exitDy=0;entryX=0.5;entryY=0;entryDx=0;entryDy=0;" edge="1" parent="1" source="l7dvxuroxf9YKhssnA6w-43" target="l7dvxuroxf9YKhssnA6w-45">
          <mxGeometry relative="1" as="geometry" />
        </mxCell>
        <mxCell id="l7dvxuroxf9YKhssnA6w-43" value="Плачу у порога" style="rounded=0;whiteSpace=wrap;html=1;" vertex="1" parent="1">
          <mxGeometry x="460" y="544.5" width="120" height="60" as="geometry" />
        </mxCell>
        <mxCell id="l7dvxuroxf9YKhssnA6w-45" value="Конец" style="rounded=0;whiteSpace=wrap;html=1;" vertex="1" parent="1">
          <mxGeometry x="460" y="630" width="120" height="60" as="geometry" />
        </mxCell>
        <mxCell id="l7dvxuroxf9YKhssnA6w-47" value="пошел в магазин" style="rhombus;whiteSpace=wrap;html=1;" vertex="1" parent="1">
          <mxGeometry x="340" y="370" width="80" height="80" as="geometry" />
        </mxCell>
        <mxCell id="l7dvxuroxf9YKhssnA6w-48" value="Actor" style="shape=umlActor;verticalLabelPosition=bottom;verticalAlign=top;html=1;outlineConnect=0;" vertex="1" parent="1">
          <mxGeometry x="600" y="540" width="30" height="60" as="geometry" />
        </mxCell>
        <mxCell id="l7dvxuroxf9YKhssnA6w-49" value="&lt;span style=&quot;color: rgb(0, 0, 0); font-family: Helvetica; font-size: 12px; font-style: normal; font-variant-ligatures: normal; font-variant-caps: normal; letter-spacing: normal; orphans: 2; text-indent: 0px; text-transform: none; widows: 2; word-spacing: 0px; -webkit-text-stroke-width: 0px; white-space: normal; background-color: rgb(236, 236, 236); text-decoration-thickness: initial; text-decoration-style: initial; text-decoration-color: initial; float: none; display: inline !important;&quot;&gt;Блок схема для написания романа&lt;/span&gt;" style="text;whiteSpace=wrap;html=1;align=center;fontStyle=1" vertex="1" parent="1">
          <mxGeometry x="660" y="70" width="120" height="50" as="geometry" />
        </mxCell>
        <mxCell id="l7dvxuroxf9YKhssnA6w-60" style="edgeStyle=orthogonalEdgeStyle;rounded=0;orthogonalLoop=1;jettySize=auto;html=1;exitX=0.5;exitY=1;exitDx=0;exitDy=0;entryX=0.5;entryY=0;entryDx=0;entryDy=0;" edge="1" parent="1" source="l7dvxuroxf9YKhssnA6w-50" target="l7dvxuroxf9YKhssnA6w-59">
          <mxGeometry relative="1" as="geometry" />
        </mxCell>
        <mxCell id="l7dvxuroxf9YKhssnA6w-50" value="начало" style="rounded=1;whiteSpace=wrap;html=1;" vertex="1" parent="1">
          <mxGeometry x="660" y="110" width="120" height="40" as="geometry" />
        </mxCell>
        <mxCell id="l7dvxuroxf9YKhssnA6w-55" style="edgeStyle=orthogonalEdgeStyle;rounded=0;orthogonalLoop=1;jettySize=auto;html=1;exitX=0.5;exitY=1;exitDx=0;exitDy=0;entryX=0.5;entryY=0;entryDx=0;entryDy=0;" edge="1" parent="1" source="l7dvxuroxf9YKhssnA6w-51" target="l7dvxuroxf9YKhssnA6w-53">
          <mxGeometry relative="1" as="geometry" />
        </mxCell>
        <mxCell id="l7dvxuroxf9YKhssnA6w-51" value="пишу" style="shape=trapezoid;perimeter=trapezoidPerimeter;whiteSpace=wrap;html=1;fixedSize=1;" vertex="1" parent="1">
          <mxGeometry x="660" y="207" width="120" height="60" as="geometry" />
        </mxCell>
        <mxCell id="l7dvxuroxf9YKhssnA6w-52" value="пишу" style="shape=trapezoid;perimeter=trapezoidPerimeter;whiteSpace=wrap;html=1;fixedSize=1;direction=west;" vertex="1" parent="1">
          <mxGeometry x="660" y="367" width="120" height="60" as="geometry" />
        </mxCell>
        <mxCell id="l7dvxuroxf9YKhssnA6w-61" style="edgeStyle=orthogonalEdgeStyle;rounded=0;orthogonalLoop=1;jettySize=auto;html=1;exitX=0.5;exitY=1;exitDx=0;exitDy=0;entryX=0.5;entryY=1;entryDx=0;entryDy=0;" edge="1" parent="1" source="l7dvxuroxf9YKhssnA6w-53" target="l7dvxuroxf9YKhssnA6w-52">
          <mxGeometry relative="1" as="geometry" />
        </mxCell>
        <mxCell id="l7dvxuroxf9YKhssnA6w-53" value="редактирую" style="rounded=0;whiteSpace=wrap;html=1;" vertex="1" parent="1">
          <mxGeometry x="660" y="287" width="120" height="60" as="geometry" />
        </mxCell>
        <mxCell id="l7dvxuroxf9YKhssnA6w-62" style="edgeStyle=orthogonalEdgeStyle;rounded=0;orthogonalLoop=1;jettySize=auto;html=1;exitX=0.5;exitY=1;exitDx=0;exitDy=0;entryX=0.5;entryY=0;entryDx=0;entryDy=0;" edge="1" parent="1" source="l7dvxuroxf9YKhssnA6w-59" target="l7dvxuroxf9YKhssnA6w-51">
          <mxGeometry relative="1" as="geometry" />
        </mxCell>
        <mxCell id="l7dvxuroxf9YKhssnA6w-59" value="При учете вдохновения" style="text;html=1;align=center;verticalAlign=middle;whiteSpace=wrap;rounded=0;" vertex="1" parent="1">
          <mxGeometry x="690" y="165" width="60" height="30" as="geometry" />
        </mxCell>
      </root>
    </mxGraphModel>
  </diagram>
</mxfile>
